<svg width="186" height="180" viewBox="0 0 186 180" fill="none" xmlns="http://www.w3.org/2000/svg">
<circle cx="95.5002" cy="90.5" r="70.5" fill="url(#paint0_linear_1639_4446)"/>
<circle cx="178.467" cy="27.5" r="7.5" fill="#EE717A"/>
<circle cx="20.0334" cy="10" r="10" fill="#EE717A"/>
<circle cx="10.0334" cy="133" r="5" fill="#EE717A"/>
<circle cx="165.533" cy="160.5" r="2.5" fill="#EE717A"/>
<path fill-rule="evenodd" clip-rule="evenodd" d="M94.8319 114.871C95.1041 115.013 95.4085 115.086 95.7129 115.083C96.0173 115.081 96.3193 115.006 96.594 114.862L105.365 110.173C107.852 108.847 109.8 107.364 111.32 105.638C114.624 101.878 116.428 97.0781 116.396 92.1291L116.292 75.8041C116.282 73.9238 115.047 72.246 113.22 71.6361L96.9033 66.1615C95.9208 65.8288 94.8442 65.8361 93.879 66.1784L77.6239 71.8482C75.8073 72.4822 74.5946 74.1721 74.6045 76.0548L74.7085 92.3677C74.7406 97.324 76.6067 102.102 79.9651 105.824C81.4996 107.526 83.4647 108.987 85.9791 110.291L94.8319 114.871ZM92.5099 95.6845C92.8762 96.0365 93.3514 96.2101 93.8266 96.2052C94.3018 96.2028 94.7745 96.0244 95.1358 95.6677L104.721 86.2179C105.441 85.5068 105.434 84.3641 104.706 83.6626C103.976 82.9611 102.801 82.9659 102.08 83.6771L93.7994 91.8395L90.4088 88.5803C89.6787 87.8788 88.5056 87.8861 87.7829 88.5972C87.0627 89.3084 87.0701 90.451 87.8002 91.1525L92.5099 95.6845Z" fill="white"/>
<circle cx="106.533" cy="4.5" r="2.5" fill="#EE717A"/>
<circle cx="62.5334" cy="176.5" r="3.5" fill="#EE717A"/>
<circle cx="122.033" cy="171" r="1" fill="#EE717A"/>
<circle cx="170.533" cy="110.5" r="2.5" fill="#EE717A"/>
<circle cx="1.03345" cy="75" r="1" fill="#EE717A"/>
<defs>
<linearGradient id="paint0_linear_1639_4446" x1="166" y1="161" x2="-1.7771" y2="112.355" gradientUnits="userSpaceOnUse">
<stop stop-color="#E21221"/>
<stop offset="1" stop-color="#FF4451"/>
</linearGradient>
</defs>
</svg>
